<?xml version="1.0" standalone="no"?><!DOCTYPE svg PUBLIC "-//W3C//DTD SVG 1.1//EN" "http://www.w3.org/Graphics/SVG/1.1/DTD/svg11.dtd"><svg t="1617605877346" class="icon" viewBox="0 0 1024 1024" version="1.1" xmlns="http://www.w3.org/2000/svg" p-id="1748" xmlns:xlink="http://www.w3.org/1999/xlink" width="200" height="200"><defs><style type="text/css"></style></defs><path d="M512 64c280.5 0 512 179.1 512 407.1 0 223.9-227.1 403-512 403-49 0-97.9-4.1-142.5-16.3L200.3 959.6v-171C80.1 715.3 0 597.3 0 467 0 243.1 227.1 64 512 64zM281.6 563c42.4 0 76.8-34.4 76.8-76.8s-34.4-76.8-76.8-76.8-76.8 34.4-76.8 76.8 34.4 76.8 76.8 76.8z m256 0c42.4 0 76.8-34.4 76.8-76.8s-34.4-76.8-76.8-76.8-76.8 34.4-76.8 76.8 34.4 76.8 76.8 76.8z m256 0c42.4 0 76.8-34.4 76.8-76.8s-34.4-76.8-76.8-76.8-76.8 34.4-76.8 76.8 34.4 76.8 76.8 76.8z" p-id="1749" data-spm-anchor-id="a313x.7781069.0.i13" class="selected" fill="#FD563C"></path></svg>