<?xml version="1.0" standalone="no"?><!DOCTYPE svg PUBLIC "-//W3C//DTD SVG 1.1//EN" "http://www.w3.org/Graphics/SVG/1.1/DTD/svg11.dtd"><svg t="1617605122834" class="icon" viewBox="0 0 1024 1024" version="1.1" xmlns="http://www.w3.org/2000/svg" p-id="967" xmlns:xlink="http://www.w3.org/1999/xlink" width="200" height="200"><defs><style type="text/css"></style></defs><path d="M569.6 19.2c-32-25.6-76.8-25.6-108.8 0l-448 422.4c-12.8 19.2-19.2 44.8 0 64 12.8 19.2 38.4 19.2 57.6 0l6.4-6.4v441.6c0 44.8 38.4 83.2 83.2 83.2h236.8v-249.6c0-32 25.6-57.6 57.6-57.6h115.2c32 0 57.6 25.6 57.6 57.6V1024h243.2c44.8 0 83.2-38.4 83.2-83.2V505.6c19.2 19.2 44.8 12.8 57.6 0 12.8-19.2 12.8-44.8 0-57.6L569.6 19.2z" p-id="968" fill="#9E9BAC"></path></svg>